<svg width="100" height="100" viewBox="0 0 100 100" fill="none" xmlns="http://www.w3.org/2000/svg">
<path d="M14 2.36C14 0.786667 14.7889 0 16.3667 0H82.6333C84.2111 0 85 0.786667 85 2.36V21.24C85 22.8133 84.2111 23.6 82.6333 23.6H61.3333V59H37.6667V23.6H16.3667C14.7889 23.6 14 22.8133 14 21.24V2.36Z" fill="#FF4500"/>
<path d="M37.7143 59H61.2857C61.2857 59 66 66.175 66 69.25C66 72.325 62.7438 75.3381 60.5 79.5C58.2562 83.6619 55 89.75 55 89.75L49.5 100L44 89.75L38.5 79.5C38.5 79.5 33 72.325 33 69.25C33 66.175 37.7143 59 37.7143 59Z" fill="#FF7700"/>
<path d="M41.8333 59H58.1667C58.1667 59 64 66.417 64 68.4815C64 70.546 59.3333 76.7778 59.3333 76.7778L54.6667 83.8889L50 91L45.3333 83.8889L40.6667 76.7778C40.6667 76.7778 36 70.546 36 68.4815C36 66.417 41.8333 59 41.8333 59Z" fill="#FFAA00"/>
<path d="M42.5 62H56.5C56.5 62 60 65.175 60 67.175C60 69.175 56.5 73 56.5 73L53 79L49.5 85L46 79L42.5 73C42.5 73 39 69 39 67C39 65 42.5 62 42.5 62Z" fill="#FFDD00"/>
<path d="M45.3333 59H54.6667C54.6667 59 57 60.5 57 62C57 63.5 54.6667 66 54.6667 66L52.3333 70L50 74L47.6667 70L45.3333 66C45.3333 66 43 63.5 43 62C43 60.5 45.3333 59 45.3333 59Z" fill="#FFFF88"/>
</svg>
