<svg width="256" height="256" viewBox="0 0 256 256" fill="none" xmlns="http://www.w3.org/2000/svg">
<g clip-path="url(#clip0_444_1569)">
<path d="M35.8398 6.0416C35.8398 2.01387 37.8594 0 41.8985 0H211.541C215.58 0 217.6 2.01387 217.6 6.0416V54.3744C217.6 58.4021 215.58 60.416 211.541 60.416H157.013V151.04H96.4265V60.416H41.8985C37.8594 60.416 35.8398 58.4021 35.8398 54.3744V6.0416Z" fill="#FF4500"/>
<path d="M96.5486 151.04H156.891C156.891 151.04 168.96 169.408 168.96 177.28C168.96 185.152 160.624 192.866 154.88 203.52C149.136 214.174 140.8 229.76 140.8 229.76L126.72 256L112.64 229.76L98.56 203.52C98.56 203.52 84.48 185.152 84.48 177.28C84.48 169.408 96.5486 151.04 96.5486 151.04Z" fill="#FF7700"/>
<path d="M107.093 151.04H148.907C148.907 151.04 163.84 170.027 163.84 175.313C163.84 180.598 151.893 196.551 151.893 196.551L139.947 214.756L128 232.96L116.053 214.756L104.107 196.551C104.107 196.551 92.1602 180.598 92.1602 175.313C92.1602 170.027 107.093 151.04 107.093 151.04Z" fill="#FFAA00"/>
<path d="M108.8 158.72H144.64C144.64 158.72 153.6 166.848 153.6 171.968C153.6 177.088 144.64 186.88 144.64 186.88L135.68 202.24L126.72 217.6L117.76 202.24L108.8 186.88C108.8 186.88 99.8398 176.64 99.8398 171.52C99.8398 166.4 108.8 158.72 108.8 158.72Z" fill="#FFDD00"/>
<path d="M116.053 151.04H139.947C139.947 151.04 145.92 154.88 145.92 158.72C145.92 162.56 139.947 168.96 139.947 168.96L133.973 179.2L128 189.44L122.027 179.2L116.053 168.96C116.053 168.96 110.08 162.56 110.08 158.72C110.08 154.88 116.053 151.04 116.053 151.04Z" fill="#FFFF88"/>
<mask id="path-6-outside-1_444_1569" maskUnits="userSpaceOnUse" x="136" y="140" width="85" height="110" fill="black">
<rect fill="white" x="136" y="140" width="85" height="110"/>
<path d="M146.264 240V150.4H208.728V168.96H167.384V221.44H210.008V240H146.264ZM156.504 203.264V185.6H202.968V203.264H156.504Z"/>
</mask>
<path d="M146.264 240V150.4H208.728V168.96H167.384V221.44H210.008V240H146.264ZM156.504 203.264V185.6H202.968V203.264H156.504Z" fill="white"/>
<path d="M146.264 240H136.264V250H146.264V240ZM146.264 150.4V140.4H136.264V150.4H146.264ZM208.728 150.4H218.728V140.4H208.728V150.4ZM208.728 168.96V178.96H218.728V168.96H208.728ZM167.384 168.96V158.96H157.384V168.96H167.384ZM167.384 221.44H157.384V231.44H167.384V221.44ZM210.008 221.44H220.008V211.44H210.008V221.44ZM210.008 240V250H220.008V240H210.008ZM156.504 203.264H146.504V213.264H156.504V203.264ZM156.504 185.6V175.6H146.504V185.6H156.504ZM202.968 185.6H212.968V175.6H202.968V185.6ZM202.968 203.264V213.264H212.968V203.264H202.968ZM146.264 240H156.264V150.4H146.264H136.264V240H146.264ZM146.264 150.4V160.4H208.728V150.4V140.4H146.264V150.4ZM208.728 150.4H198.728V168.96H208.728H218.728V150.4H208.728ZM208.728 168.96V158.96H167.384V168.96V178.96H208.728V168.96ZM167.384 168.96H157.384V221.44H167.384H177.384V168.96H167.384ZM167.384 221.44V231.44H210.008V221.44V211.44H167.384V221.44ZM210.008 221.44H200.008V240H210.008H220.008V221.44H210.008ZM210.008 240V230H146.264V240V250H210.008V240ZM156.504 203.264H166.504V185.6H156.504H146.504V203.264H156.504ZM156.504 185.6V195.6H202.968V185.6V175.6H156.504V185.6ZM202.968 185.6H192.968V203.264H202.968H212.968V185.6H202.968ZM202.968 203.264V193.264H156.504V203.264V213.264H202.968V203.264Z" fill="black" mask="url(#path-6-outside-1_444_1569)"/>
</g>
<defs>
<clipPath id="clip0_444_1569">
<rect width="256" height="256" fill="white"/>
</clipPath>
</defs>
</svg>
